<svg width="10" height="8" viewBox="0 0 10 8" fill="none" xmlns="http://www.w3.org/2000/svg">
<path d="M9.29384 0.91599C9.2343 0.855967 9.16348 0.808325 9.08544 0.775813C9.0074 0.743301 8.9237 0.726562 8.83916 0.726562C8.75462 0.726562 8.67091 0.743301 8.59288 0.775813C8.51484 0.808325 8.44401 0.855967 8.38448 0.91599L3.61354 5.69333L1.60911 3.68249C1.5473 3.62278 1.47433 3.57583 1.39438 3.54432C1.31442 3.51281 1.22904 3.49736 1.14311 3.49885C1.05718 3.50033 0.972389 3.51873 0.893571 3.55299C0.814752 3.58724 0.743453 3.63669 0.683743 3.6985C0.624034 3.76031 0.577084 3.83328 0.545574 3.91324C0.514064 3.99319 0.498611 4.07857 0.500098 4.1645C0.501585 4.25043 0.519982 4.33522 0.554239 4.41404C0.588495 4.49286 0.637941 4.56416 0.699753 4.62387L3.15886 7.08298C3.2184 7.143 3.28923 7.19065 3.36726 7.22316C3.4453 7.25567 3.52901 7.27241 3.61354 7.27241C3.69808 7.27241 3.78179 7.25567 3.85983 7.22316C3.93786 7.19065 4.00869 7.143 4.06822 7.08298L9.29384 1.85737C9.35884 1.7974 9.41072 1.72462 9.4462 1.64361C9.48168 1.5626 9.5 1.47512 9.5 1.38668C9.5 1.29824 9.48168 1.21076 9.4462 1.12975C9.41072 1.04874 9.35884 0.975958 9.29384 0.91599Z" fill="#26252F"/>
</svg>
