<svg width="12" height="8" viewBox="0 0 12 8" fill="none" xmlns="http://www.w3.org/2000/svg">
<path d="M10.9997 1.1736C10.8123 0.987354 10.5589 0.882812 10.2947 0.882812C10.0305 0.882813 9.77707 0.987354 9.5897 1.1736L5.9997 4.7136L2.4597 1.1736C2.27234 0.987354 2.01889 0.882812 1.7547 0.882812C1.49052 0.882812 1.23707 0.987354 1.0497 1.1736C0.955976 1.26657 0.881582 1.37717 0.830813 1.49903C0.780044 1.62089 0.753906 1.75159 0.753906 1.88361C0.753906 2.01562 0.780044 2.14632 0.830813 2.26818C0.881582 2.39004 0.955976 2.50064 1.0497 2.59361L5.2897 6.8336C5.38267 6.92733 5.49327 7.00173 5.61513 7.0525C5.73699 7.10326 5.86769 7.1294 5.9997 7.1294C6.13172 7.1294 6.26242 7.10326 6.38428 7.0525C6.50614 7.00173 6.61674 6.92733 6.7097 6.8336L10.9997 2.59361C11.0934 2.50064 11.1678 2.39004 11.2186 2.26818C11.2694 2.14632 11.2955 2.01562 11.2955 1.88361C11.2955 1.75159 11.2694 1.62089 11.2186 1.49903C11.1678 1.37717 11.0934 1.26657 10.9997 1.1736Z" fill="#26252F"/>
</svg>
